<svg width="590" height="103" viewBox="0 0 590 103" fill="none" xmlns="http://www.w3.org/2000/svg">
<g filter="url(#filter0_d_113_297)">
<mask id="path-1-outside-1_113_297" maskUnits="userSpaceOnUse" x="18.9457" y="11" width="97" height="80" fill="black">
<rect fill="white" x="18.9457" y="11" width="97" height="80"/>
<path d="M76.7451 56.5923C77.5326 60.3394 79.5964 61.6872 82.8551 61.6872C91.2189 61.6603 99.5828 61.6872 107.947 61.6872C109.114 61.6872 110.282 61.6872 111.64 61.6872V86.8652C110.662 86.9191 109.657 87 108.625 87C98.1978 87 87.7702 87 77.3425 87C70.1192 87 64.7425 83.0912 62.4343 76.2441C60.3976 70.2326 58.4153 64.2212 55.7269 58.1289C54.9122 62.5768 54.1247 67.0247 53.3101 71.4457C52.9028 73.6562 52.604 75.9206 52.0338 78.1041C50.4859 83.9269 46.5212 86.973 40.4656 87C34.3828 87.027 28.3272 87 21.9457 87V61.6603C23.7922 61.6603 25.6931 61.6872 27.594 61.6603C32.319 61.5524 33.6496 60.4472 34.5457 55.8106C35.8492 49.0713 37.1255 42.305 38.4833 35.2422H22.0271V19.041H41.2803C42.5656 15.6803 45.073 14 48.8023 14C53.4459 14 58.1166 14 63.086 14C62.9502 15.7253 62.8688 17.154 62.733 18.9062H112.726C112.726 22.0602 112.726 24.9177 112.726 27.8021C112.726 34.0561 112.753 40.3102 112.726 46.5643C112.672 53.3305 109.359 56.5654 102.461 56.5923C93.9888 56.5923 85.5435 56.5923 76.7723 56.5923H76.7451ZM58.7411 40.418C68.8972 40.418 78.6188 40.4719 88.3676 40.3911C91.4905 40.3911 92.3323 38.9354 91.6262 35.2692H59.6916C59.3929 36.8866 59.1213 38.4501 58.7683 40.418H58.7411Z"/>
</mask>
<path d="M76.7451 56.5923C77.5326 60.3394 79.5964 61.6872 82.8551 61.6872C91.2189 61.6603 99.5828 61.6872 107.947 61.6872C109.114 61.6872 110.282 61.6872 111.64 61.6872V86.8652C110.662 86.9191 109.657 87 108.625 87C98.1978 87 87.7702 87 77.3425 87C70.1192 87 64.7425 83.0912 62.4343 76.2441C60.3976 70.2326 58.4153 64.2212 55.7269 58.1289C54.9122 62.5768 54.1247 67.0247 53.3101 71.4457C52.9028 73.6562 52.604 75.9206 52.0338 78.1041C50.4859 83.9269 46.5212 86.973 40.4656 87C34.3828 87.027 28.3272 87 21.9457 87V61.6603C23.7922 61.6603 25.6931 61.6872 27.594 61.6603C32.319 61.5524 33.6496 60.4472 34.5457 55.8106C35.8492 49.0713 37.1255 42.305 38.4833 35.2422H22.0271V19.041H41.2803C42.5656 15.6803 45.073 14 48.8023 14C53.4459 14 58.1166 14 63.086 14C62.9502 15.7253 62.8688 17.154 62.733 18.9062H112.726C112.726 22.0602 112.726 24.9177 112.726 27.8021C112.726 34.0561 112.753 40.3102 112.726 46.5643C112.672 53.3305 109.359 56.5654 102.461 56.5923C93.9888 56.5923 85.5435 56.5923 76.7723 56.5923H76.7451ZM58.7411 40.418C68.8972 40.418 78.6188 40.4719 88.3676 40.3911C91.4905 40.3911 92.3323 38.9354 91.6262 35.2692H59.6916C59.3929 36.8866 59.1213 38.4501 58.7683 40.418H58.7411Z" fill="black"/>
<path d="M76.7451 56.5923C77.5326 60.3394 79.5964 61.6872 82.8551 61.6872C91.2189 61.6603 99.5828 61.6872 107.947 61.6872C109.114 61.6872 110.282 61.6872 111.64 61.6872V86.8652C110.662 86.9191 109.657 87 108.625 87C98.1978 87 87.7702 87 77.3425 87C70.1192 87 64.7425 83.0912 62.4343 76.2441C60.3976 70.2326 58.4153 64.2212 55.7269 58.1289C54.9122 62.5768 54.1247 67.0247 53.3101 71.4457C52.9028 73.6562 52.604 75.9206 52.0338 78.1041C50.4859 83.9269 46.5212 86.973 40.4656 87C34.3828 87.027 28.3272 87 21.9457 87V61.6603C23.7922 61.6603 25.6931 61.6872 27.594 61.6603C32.319 61.5524 33.6496 60.4472 34.5457 55.8106C35.8492 49.0713 37.1255 42.305 38.4833 35.2422H22.0271V19.041H41.2803C42.5656 15.6803 45.073 14 48.8023 14C53.4459 14 58.1166 14 63.086 14C62.9502 15.7253 62.8688 17.154 62.733 18.9062H112.726C112.726 22.0602 112.726 24.9177 112.726 27.8021C112.726 34.0561 112.753 40.3102 112.726 46.5643C112.672 53.3305 109.359 56.5654 102.461 56.5923C93.9888 56.5923 85.5435 56.5923 76.7723 56.5923H76.7451ZM58.7411 40.418C68.8972 40.418 78.6188 40.4719 88.3676 40.3911C91.4905 40.3911 92.3323 38.9354 91.6262 35.2692H59.6916C59.3929 36.8866 59.1213 38.4501 58.7683 40.418H58.7411Z" stroke="#680259" stroke-width="6" mask="url(#path-1-outside-1_113_297)"/>
<mask id="path-2-outside-2_113_297" maskUnits="userSpaceOnUse" x="466.275" y="16.2295" width="91" height="74" fill="black">
<rect fill="white" x="466.275" y="16.2295" width="91" height="74"/>
<path d="M473.81 56.5921H469.275V40.5526C470.66 40.4717 472.045 40.3909 473.593 40.31V35.3229C472.208 35.2151 470.85 35.0803 469.275 34.9455V19.2295H553.919V35.0803H494.747V40.3909H554V56.4843H494.856C494.421 60.5818 495.426 61.6601 499.554 61.6601C516.39 61.6601 533.226 61.6601 550.035 61.6601C551.23 61.6601 552.398 61.6601 553.864 61.6601V86.8381C552.778 86.892 551.637 86.9728 550.497 86.9728C528.773 86.9728 507.048 86.9728 485.351 86.9728C477.069 86.9728 473.783 83.6841 473.783 75.3543C473.783 69.235 473.783 63.0888 473.783 56.5652L473.81 56.5921Z"/>
</mask>
<path d="M473.81 56.5921H469.275V40.5526C470.66 40.4717 472.045 40.3909 473.593 40.31V35.3229C472.208 35.2151 470.85 35.0803 469.275 34.9455V19.2295H553.919V35.0803H494.747V40.3909H554V56.4843H494.856C494.421 60.5818 495.426 61.6601 499.554 61.6601C516.39 61.6601 533.226 61.6601 550.035 61.6601C551.23 61.6601 552.398 61.6601 553.864 61.6601V86.8381C552.778 86.892 551.637 86.9728 550.497 86.9728C528.773 86.9728 507.048 86.9728 485.351 86.9728C477.069 86.9728 473.783 83.6841 473.783 75.3543C473.783 69.235 473.783 63.0888 473.783 56.5652L473.81 56.5921Z" fill="black"/>
<path d="M473.81 56.5921H469.275V40.5526C470.66 40.4717 472.045 40.3909 473.593 40.31V35.3229C472.208 35.2151 470.85 35.0803 469.275 34.9455V19.2295H553.919V35.0803H494.747V40.3909H554V56.4843H494.856C494.421 60.5818 495.426 61.6601 499.554 61.6601C516.39 61.6601 533.226 61.6601 550.035 61.6601C551.23 61.6601 552.398 61.6601 553.864 61.6601V86.8381C552.778 86.892 551.637 86.9728 550.497 86.9728C528.773 86.9728 507.048 86.9728 485.351 86.9728C477.069 86.9728 473.783 83.6841 473.783 75.3543C473.783 69.235 473.783 63.0888 473.783 56.5652L473.81 56.5921Z" stroke="#680259" stroke-width="6" mask="url(#path-2-outside-2_113_297)"/>
<mask id="path-3-outside-3_113_297" maskUnits="userSpaceOnUse" x="116.705" y="15.96" width="93" height="75" fill="black">
<rect fill="white" x="116.705" y="15.96" width="93" height="75"/>
<path d="M182.081 86.7842V74.6535H150.961C150.961 74.6535 150.608 74.923 150.58 75.0848C148.299 84.7354 145.475 86.9998 135.536 86.9998C130.323 86.9998 125.136 86.9998 119.705 86.9998V61.6601C121.932 61.6601 124.077 61.741 126.222 61.6601C130.187 61.4445 131.572 60.2044 132.305 56.3495C133.636 49.4755 134.966 42.6284 136.378 35.3499H119.759V18.96H123.018C146.914 18.96 170.811 18.96 194.708 18.96C202.474 18.96 206.575 22.9766 206.602 30.6594C206.602 48.4511 206.602 66.2428 206.602 84.0346C206.602 84.8702 206.52 85.7329 206.466 86.7842H182.081ZM154.138 54.4895H182.026C182.026 49.1789 182.053 44.138 182.026 39.097C181.999 36.536 180.723 35.1073 178.007 35.1073C171.843 35.1073 165.652 35.0534 159.487 35.1882C158.7 35.1882 157.342 36.0238 157.233 36.6708C156.093 42.5475 155.17 48.4511 154.165 54.4895H154.138Z"/>
</mask>
<path d="M182.081 86.7842V74.6535H150.961C150.961 74.6535 150.608 74.923 150.58 75.0848C148.299 84.7354 145.475 86.9998 135.536 86.9998C130.323 86.9998 125.136 86.9998 119.705 86.9998V61.6601C121.932 61.6601 124.077 61.741 126.222 61.6601C130.187 61.4445 131.572 60.2044 132.305 56.3495C133.636 49.4755 134.966 42.6284 136.378 35.3499H119.759V18.96H123.018C146.914 18.96 170.811 18.96 194.708 18.96C202.474 18.96 206.575 22.9766 206.602 30.6594C206.602 48.4511 206.602 66.2428 206.602 84.0346C206.602 84.8702 206.52 85.7329 206.466 86.7842H182.081ZM154.138 54.4895H182.026C182.026 49.1789 182.053 44.138 182.026 39.097C181.999 36.536 180.723 35.1073 178.007 35.1073C171.843 35.1073 165.652 35.0534 159.487 35.1882C158.7 35.1882 157.342 36.0238 157.233 36.6708C156.093 42.5475 155.17 48.4511 154.165 54.4895H154.138Z" fill="black"/>
<path d="M182.081 86.7842V74.6535H150.961C150.961 74.6535 150.608 74.923 150.58 75.0848C148.299 84.7354 145.475 86.9998 135.536 86.9998C130.323 86.9998 125.136 86.9998 119.705 86.9998V61.6601C121.932 61.6601 124.077 61.741 126.222 61.6601C130.187 61.4445 131.572 60.2044 132.305 56.3495C133.636 49.4755 134.966 42.6284 136.378 35.3499H119.759V18.96H123.018C146.914 18.96 170.811 18.96 194.708 18.96C202.474 18.96 206.575 22.9766 206.602 30.6594C206.602 48.4511 206.602 66.2428 206.602 84.0346C206.602 84.8702 206.52 85.7329 206.466 86.7842H182.081ZM154.138 54.4895H182.026C182.026 49.1789 182.053 44.138 182.026 39.097C181.999 36.536 180.723 35.1073 178.007 35.1073C171.843 35.1073 165.652 35.0534 159.487 35.1882C158.7 35.1882 157.342 36.0238 157.233 36.6708C156.093 42.5475 155.17 48.4511 154.165 54.4895H154.138Z" stroke="#680259" stroke-width="6" mask="url(#path-3-outside-3_113_297)"/>
<mask id="path-4-outside-4_113_297" maskUnits="userSpaceOnUse" x="205.445" y="16.1758" width="95" height="79" fill="black">
<rect fill="white" x="205.445" y="16.1758" width="95" height="79"/>
<path d="M213.472 87V61.6603C217.274 61.6603 220.94 61.7142 224.606 61.6603C228.19 61.6064 229.086 60.582 228.978 56.6732H213.526V40.445H228.978V35.3501H213.608V19.1758H296.785V35.0266H250.078V40.3372H296.866V56.4845H249.779C249.779 62.8464 249.779 68.8578 249.779 74.8423C249.779 84.0347 246.792 86.973 237.45 86.973C229.521 86.973 221.619 86.973 213.445 86.973L213.472 87Z"/>
</mask>
<path d="M213.472 87V61.6603C217.274 61.6603 220.94 61.7142 224.606 61.6603C228.19 61.6064 229.086 60.582 228.978 56.6732H213.526V40.445H228.978V35.3501H213.608V19.1758H296.785V35.0266H250.078V40.3372H296.866V56.4845H249.779C249.779 62.8464 249.779 68.8578 249.779 74.8423C249.779 84.0347 246.792 86.973 237.45 86.973C229.521 86.973 221.619 86.973 213.445 86.973L213.472 87Z" fill="black"/>
<path d="M213.472 87V61.6603C217.274 61.6603 220.94 61.7142 224.606 61.6603C228.19 61.6064 229.086 60.582 228.978 56.6732H213.526V40.445H228.978V35.3501H213.608V19.1758H296.785V35.0266H250.078V40.3372H296.866V56.4845H249.779C249.779 62.8464 249.779 68.8578 249.779 74.8423C249.779 84.0347 246.792 86.973 237.45 86.973C229.521 86.973 221.619 86.973 213.445 86.973L213.472 87Z" stroke="#680259" stroke-width="6" mask="url(#path-4-outside-4_113_297)"/>
<mask id="path-5-outside-5_113_297" maskUnits="userSpaceOnUse" x="299.406" y="16.1489" width="90" height="74" fill="black">
<rect fill="white" x="299.406" y="16.1489" width="90" height="74"/>
<path d="M302.406 40.3373H317.749V35.1884H302.46V19.1489H385.583V34.9458H338.93V40.3373H385.637V56.4307H338.658C338.658 58.5064 338.658 60.2856 338.658 62.0378C338.658 66.9979 338.767 71.958 338.631 76.9181C338.468 83.3609 334.829 86.9192 328.394 86.9462C319.812 87.0001 311.259 86.9462 302.433 86.9462V61.6065C305.99 61.6065 309.656 61.6604 313.295 61.6065C316.88 61.5525 317.776 60.5821 317.803 56.6194H302.406V40.2833V40.3373Z"/>
</mask>
<path d="M302.406 40.3373H317.749V35.1884H302.46V19.1489H385.583V34.9458H338.93V40.3373H385.637V56.4307H338.658C338.658 58.5064 338.658 60.2856 338.658 62.0378C338.658 66.9979 338.767 71.958 338.631 76.9181C338.468 83.3609 334.829 86.9192 328.394 86.9462C319.812 87.0001 311.259 86.9462 302.433 86.9462V61.6065C305.99 61.6065 309.656 61.6604 313.295 61.6065C316.88 61.5525 317.776 60.5821 317.803 56.6194H302.406V40.2833V40.3373Z" fill="black"/>
<path d="M302.406 40.3373H317.749V35.1884H302.46V19.1489H385.583V34.9458H338.93V40.3373H385.637V56.4307H338.658C338.658 58.5064 338.658 60.2856 338.658 62.0378C338.658 66.9979 338.767 71.958 338.631 76.9181C338.468 83.3609 334.829 86.9192 328.394 86.9462C319.812 87.0001 311.259 86.9462 302.433 86.9462V61.6065C305.99 61.6065 309.656 61.6604 313.295 61.6065C316.88 61.5525 317.776 60.5821 317.803 56.6194H302.406V40.2833V40.3373Z" stroke="#680259" stroke-width="6" mask="url(#path-5-outside-5_113_297)"/>
<mask id="path-6-outside-6_113_297" maskUnits="userSpaceOnUse" x="387.796" y="16.2295" width="79" height="74" fill="black">
<rect fill="white" x="387.796" y="16.2295" width="79" height="74"/>
<path d="M463.383 61.6601V86.9998C462.134 86.9998 461.074 86.9998 460.015 86.9998C440.681 86.9998 421.346 86.9998 402.012 86.9998C394.055 86.9998 390.796 83.711 390.796 75.7587C390.796 58.0748 390.796 40.3909 390.796 22.707C390.796 21.6287 390.796 20.5774 390.796 19.2295H411.435V22.6261C411.435 33.8403 411.435 45.0545 411.435 56.2686C411.435 60.9322 412.195 61.6601 416.974 61.6601C431.204 61.6601 445.433 61.6601 459.662 61.6601C460.83 61.6601 462.025 61.6601 463.383 61.6601Z"/>
</mask>
<path d="M463.383 61.6601V86.9998C462.134 86.9998 461.074 86.9998 460.015 86.9998C440.681 86.9998 421.346 86.9998 402.012 86.9998C394.055 86.9998 390.796 83.711 390.796 75.7587C390.796 58.0748 390.796 40.3909 390.796 22.707C390.796 21.6287 390.796 20.5774 390.796 19.2295H411.435V22.6261C411.435 33.8403 411.435 45.0545 411.435 56.2686C411.435 60.9322 412.195 61.6601 416.974 61.6601C431.204 61.6601 445.433 61.6601 459.662 61.6601C460.83 61.6601 462.025 61.6601 463.383 61.6601Z" fill="black"/>
<path d="M463.383 61.6601V86.9998C462.134 86.9998 461.074 86.9998 460.015 86.9998C440.681 86.9998 421.346 86.9998 402.012 86.9998C394.055 86.9998 390.796 83.711 390.796 75.7587C390.796 58.0748 390.796 40.3909 390.796 22.707C390.796 21.6287 390.796 20.5774 390.796 19.2295H411.435V22.6261C411.435 33.8403 411.435 45.0545 411.435 56.2686C411.435 60.9322 412.195 61.6601 416.974 61.6601C431.204 61.6601 445.433 61.6601 459.662 61.6601C460.83 61.6601 462.025 61.6601 463.383 61.6601Z" stroke="#680259" stroke-width="6" mask="url(#path-6-outside-6_113_297)"/>
</g>
<defs>
<filter id="filter0_d_113_297" x="0" y="0" width="590" height="107" filterUnits="userSpaceOnUse" color-interpolation-filters="sRGB">
<feFlood flood-opacity="0" result="BackgroundImageFix"/>
<feColorMatrix in="SourceAlpha" type="matrix" values="0 0 0 0 0 0 0 0 0 0 0 0 0 0 0 0 0 0 127 0" result="hardAlpha"/>
<feOffset dy="4"/>
<feComposite in2="hardAlpha" operator="out"/>
<feColorMatrix type="matrix" values="0 0 0 0 1 0 0 0 0 0 0 0 0 0 0.96 0 0 0 0.34 0"/>
<feBlend mode="normal" in2="BackgroundImageFix" result="effect1_dropShadow_113_297"/>
<feBlend mode="normal" in="SourceGraphic" in2="effect1_dropShadow_113_297" result="shape"/>
</filter>
</defs>
</svg>
