<svg width="552" height="87" viewBox="0 0 552 87" fill="none" xmlns="http://www.w3.org/2000/svg">
<mask id="path-1-outside-1_113_253" maskUnits="userSpaceOnUse" x="5" y="8.47119" width="81" height="67" fill="black">
<rect fill="white" x="5" y="8.47119" width="81" height="67"/>
<path d="M8.09679 71.7356V49.3558C9.18571 49.3558 10.202 49.3558 11.2184 49.3558C25.3501 49.3558 39.4819 49.3558 53.5894 49.3558C54.267 49.3558 54.9445 49.3558 55.6221 49.3558C57.3644 49.3318 59.2276 49.1154 59.155 46.9279C59.0824 44.9087 57.2918 44.8366 55.6705 44.8366C42.8938 44.8366 30.1172 44.8366 17.3405 44.8366C10.807 44.8125 8 42.0481 8 35.5577C8 27.601 8 19.6443 8 11.4712H81.0786V25.6058H26.802C26.2938 29.6202 26.8988 30.4135 30.3833 30.4135C44.6119 30.4135 58.8404 30.4135 73.0448 30.4135C79.1911 30.4135 82.1917 33.2741 82.2159 39.3558C82.2643 47.2404 82.2643 55.125 82.2159 63.0096C82.1917 68.4183 78.925 71.9039 73.6981 71.9279C52.1133 71.976 30.5527 71.9279 8.96793 71.9279C8.77434 71.9279 8.60496 71.8558 8.09679 71.7356Z"/>
</mask>
<path d="M8.09679 71.7356V49.3558C9.18571 49.3558 10.202 49.3558 11.2184 49.3558C25.3501 49.3558 39.4819 49.3558 53.5894 49.3558C54.267 49.3558 54.9445 49.3558 55.6221 49.3558C57.3644 49.3318 59.2276 49.1154 59.155 46.9279C59.0824 44.9087 57.2918 44.8366 55.6705 44.8366C42.8938 44.8366 30.1172 44.8366 17.3405 44.8366C10.807 44.8125 8 42.0481 8 35.5577C8 27.601 8 19.6443 8 11.4712H81.0786V25.6058H26.802C26.2938 29.6202 26.8988 30.4135 30.3833 30.4135C44.6119 30.4135 58.8404 30.4135 73.0448 30.4135C79.1911 30.4135 82.1917 33.2741 82.2159 39.3558C82.2643 47.2404 82.2643 55.125 82.2159 63.0096C82.1917 68.4183 78.925 71.9039 73.6981 71.9279C52.1133 71.976 30.5527 71.9279 8.96793 71.9279C8.77434 71.9279 8.60496 71.8558 8.09679 71.7356Z" fill="black"/>
<path d="M8.09679 71.7356V49.3558C9.18571 49.3558 10.202 49.3558 11.2184 49.3558C25.3501 49.3558 39.4819 49.3558 53.5894 49.3558C54.267 49.3558 54.9445 49.3558 55.6221 49.3558C57.3644 49.3318 59.2276 49.1154 59.155 46.9279C59.0824 44.9087 57.2918 44.8366 55.6705 44.8366C42.8938 44.8366 30.1172 44.8366 17.3405 44.8366C10.807 44.8125 8 42.0481 8 35.5577C8 27.601 8 19.6443 8 11.4712H81.0786V25.6058H26.802C26.2938 29.6202 26.8988 30.4135 30.3833 30.4135C44.6119 30.4135 58.8404 30.4135 73.0448 30.4135C79.1911 30.4135 82.1917 33.2741 82.2159 39.3558C82.2643 47.2404 82.2643 55.125 82.2159 63.0096C82.1917 68.4183 78.925 71.9039 73.6981 71.9279C52.1133 71.976 30.5527 71.9279 8.96793 71.9279C8.77434 71.9279 8.60496 71.8558 8.09679 71.7356Z" stroke="#680259" stroke-width="6" mask="url(#path-1-outside-1_113_253)"/>
<mask id="path-2-outside-2_113_253" maskUnits="userSpaceOnUse" x="154.312" y="8.27832" width="84" height="67" fill="black">
<rect fill="white" x="154.312" y="8.27832" width="84" height="67"/>
<path d="M234.746 71.8072H212.871V60.9899C211.855 60.8697 211.129 60.7254 210.379 60.7014C202.732 60.7014 195.086 60.7254 187.439 60.6533C185.6 60.6533 184.777 61.062 184.39 63.0812C183.301 68.9947 179.502 71.9274 173.404 71.9274C168.105 71.9274 162.805 71.9274 157.312 71.9274V49.3312C159.296 49.3312 161.184 49.4033 163.096 49.3312C166.604 49.187 167.911 48.0572 168.589 44.6197C169.798 38.4177 170.96 32.2158 172.218 25.7014H157.336V11.2783C158.28 11.2783 159.296 11.2783 160.313 11.2783C181.607 11.2783 202.902 11.2783 224.196 11.2783C231.117 11.2783 234.746 14.8601 234.746 21.7591C234.746 37.4322 234.746 53.1052 234.746 68.7783C234.746 69.7158 234.746 70.6774 234.746 71.8072ZM212.871 43.0812C212.871 38.1293 213.041 33.5379 212.75 28.9466C212.678 27.8168 211.081 25.9177 210.137 25.8937C203.797 25.6293 197.433 25.7495 190.996 25.7495C189.98 31.6389 189.012 37.2639 188.02 43.0812H212.895H212.871Z"/>
</mask>
<path d="M234.746 71.8072H212.871V60.9899C211.855 60.8697 211.129 60.7254 210.379 60.7014C202.732 60.7014 195.086 60.7254 187.439 60.6533C185.6 60.6533 184.777 61.062 184.39 63.0812C183.301 68.9947 179.502 71.9274 173.404 71.9274C168.105 71.9274 162.805 71.9274 157.312 71.9274V49.3312C159.296 49.3312 161.184 49.4033 163.096 49.3312C166.604 49.187 167.911 48.0572 168.589 44.6197C169.798 38.4177 170.96 32.2158 172.218 25.7014H157.336V11.2783C158.28 11.2783 159.296 11.2783 160.313 11.2783C181.607 11.2783 202.902 11.2783 224.196 11.2783C231.117 11.2783 234.746 14.8601 234.746 21.7591C234.746 37.4322 234.746 53.1052 234.746 68.7783C234.746 69.7158 234.746 70.6774 234.746 71.8072ZM212.871 43.0812C212.871 38.1293 213.041 33.5379 212.75 28.9466C212.678 27.8168 211.081 25.9177 210.137 25.8937C203.797 25.6293 197.433 25.7495 190.996 25.7495C189.98 31.6389 189.012 37.2639 188.02 43.0812H212.895H212.871Z" fill="black"/>
<path d="M234.746 71.8072H212.871V60.9899C211.855 60.8697 211.129 60.7254 210.379 60.7014C202.732 60.7014 195.086 60.7254 187.439 60.6533C185.6 60.6533 184.777 61.062 184.39 63.0812C183.301 68.9947 179.502 71.9274 173.404 71.9274C168.105 71.9274 162.805 71.9274 157.312 71.9274V49.3312C159.296 49.3312 161.184 49.4033 163.096 49.3312C166.604 49.187 167.911 48.0572 168.589 44.6197C169.798 38.4177 170.96 32.2158 172.218 25.7014H157.336V11.2783C158.28 11.2783 159.296 11.2783 160.313 11.2783C181.607 11.2783 202.902 11.2783 224.196 11.2783C231.117 11.2783 234.746 14.8601 234.746 21.7591C234.746 37.4322 234.746 53.1052 234.746 68.7783C234.746 69.7158 234.746 70.6774 234.746 71.8072ZM212.871 43.0812C212.871 38.1293 213.041 33.5379 212.75 28.9466C212.678 27.8168 211.081 25.9177 210.137 25.8937C203.797 25.6293 197.433 25.7495 190.996 25.7495C189.98 31.6389 189.012 37.2639 188.02 43.0812H212.895H212.871Z" stroke="#680259" stroke-width="6" mask="url(#path-2-outside-2_113_253)"/>
<mask id="path-3-outside-3_113_253" maskUnits="userSpaceOnUse" x="452.985" y="8.22998" width="84" height="67" fill="black">
<rect fill="white" x="452.985" y="8.22998" width="84" height="67"/>
<path d="M533.564 25.7016H516.625C513.722 25.7016 510.77 26.0141 507.914 25.6294C501.284 24.7641 495.936 26.8554 491.193 31.4708C488.314 34.2833 485.023 36.7352 481.659 38.9948C477.933 41.4948 476.819 44.74 477.739 49.1391H511.592V44.9083H503.244V30.5814H533.516V71.8073H455.985C455.985 69.5477 455.985 67.3602 455.985 65.1727C455.985 59.3073 455.985 53.4419 455.985 47.5765C455.985 42.1679 457.896 37.8169 462.446 34.4516C471.375 27.865 480.086 20.99 488.846 14.1871C491.387 12.216 494.121 11.2064 497.388 11.2304C508.422 11.3266 519.457 11.2785 530.491 11.2785H533.516V25.7016H533.564Z"/>
</mask>
<path d="M533.564 25.7016H516.625C513.722 25.7016 510.77 26.0141 507.914 25.6294C501.284 24.7641 495.936 26.8554 491.193 31.4708C488.314 34.2833 485.023 36.7352 481.659 38.9948C477.933 41.4948 476.819 44.74 477.739 49.1391H511.592V44.9083H503.244V30.5814H533.516V71.8073H455.985C455.985 69.5477 455.985 67.3602 455.985 65.1727C455.985 59.3073 455.985 53.4419 455.985 47.5765C455.985 42.1679 457.896 37.8169 462.446 34.4516C471.375 27.865 480.086 20.99 488.846 14.1871C491.387 12.216 494.121 11.2064 497.388 11.2304C508.422 11.3266 519.457 11.2785 530.491 11.2785H533.516V25.7016H533.564Z" fill="black"/>
<path d="M533.564 25.7016H516.625C513.722 25.7016 510.77 26.0141 507.914 25.6294C501.284 24.7641 495.936 26.8554 491.193 31.4708C488.314 34.2833 485.023 36.7352 481.659 38.9948C477.933 41.4948 476.819 44.74 477.739 49.1391H511.592V44.9083H503.244V30.5814H533.516V71.8073H455.985C455.985 69.5477 455.985 67.3602 455.985 65.1727C455.985 59.3073 455.985 53.4419 455.985 47.5765C455.985 42.1679 457.896 37.8169 462.446 34.4516C471.375 27.865 480.086 20.99 488.846 14.1871C491.387 12.216 494.121 11.2064 497.388 11.2304C508.422 11.3266 519.457 11.2785 530.491 11.2785H533.516V25.7016H533.564Z" stroke="#680259" stroke-width="6" mask="url(#path-3-outside-3_113_253)"/>
<mask id="path-4-outside-4_113_253" maskUnits="userSpaceOnUse" x="234.165" y="8.27148" width="87" height="69" fill="black">
<rect fill="white" x="234.165" y="8.27148" width="87" height="69"/>
<path d="M237.213 71.9523V50.1013C240.722 49.308 244.448 49.2599 247.134 47.5532C248.78 46.4955 248.804 42.9378 249.724 40.0292H237.286V25.5099C241.399 25.5099 245.537 25.3657 249.651 25.558C251.805 25.6542 252.531 24.8128 252.821 22.8898C253.329 19.6686 253.934 16.4474 254.708 13.2744C254.902 12.5051 255.894 11.3753 256.523 11.3753C262.016 11.2311 267.509 11.2792 273.414 11.2792C272.615 16.0628 271.865 20.558 271.018 25.5099C274.89 25.5099 278.52 25.5099 282.173 25.5099C285.561 25.5099 288.949 25.534 292.337 25.5099C295.555 25.4619 296.281 24.7407 296.305 21.6157C296.329 18.2744 296.305 14.933 296.305 11.4474H318.011C318.059 12.3849 318.156 13.2984 318.156 14.2119C318.156 19.7888 318.156 25.3657 318.156 30.9426C318.156 37.0965 315.349 39.8849 309.082 39.933C303.855 39.9811 298.628 39.933 293.401 39.933C292.361 39.933 291.296 39.933 289.602 39.933C290.425 42.7455 290.788 45.3417 291.974 47.4811C292.579 48.5388 294.684 49.2359 296.16 49.2599C302.161 49.4523 308.162 49.3321 314.164 49.3321C315.107 49.3321 316.051 49.3321 317.14 49.3321V71.8561C307.654 71.8561 298.289 72.2407 288.949 71.6878C283.94 71.3994 280.31 68.034 278.931 62.9138C277.092 56.0388 275.277 49.1878 273.535 42.2888C273.099 40.5099 272.301 39.8369 270.389 39.8369C268.187 39.8369 268.187 41.2311 267.945 42.6494C266.783 49.2599 265.67 55.8946 264.46 62.5051C263.299 68.8994 259.621 71.9042 253.039 71.9282C247.836 71.9282 242.609 71.9282 237.165 71.9282L237.213 71.9523Z"/>
</mask>
<path d="M237.213 71.9523V50.1013C240.722 49.308 244.448 49.2599 247.134 47.5532C248.78 46.4955 248.804 42.9378 249.724 40.0292H237.286V25.5099C241.399 25.5099 245.537 25.3657 249.651 25.558C251.805 25.6542 252.531 24.8128 252.821 22.8898C253.329 19.6686 253.934 16.4474 254.708 13.2744C254.902 12.5051 255.894 11.3753 256.523 11.3753C262.016 11.2311 267.509 11.2792 273.414 11.2792C272.615 16.0628 271.865 20.558 271.018 25.5099C274.89 25.5099 278.52 25.5099 282.173 25.5099C285.561 25.5099 288.949 25.534 292.337 25.5099C295.555 25.4619 296.281 24.7407 296.305 21.6157C296.329 18.2744 296.305 14.933 296.305 11.4474H318.011C318.059 12.3849 318.156 13.2984 318.156 14.2119C318.156 19.7888 318.156 25.3657 318.156 30.9426C318.156 37.0965 315.349 39.8849 309.082 39.933C303.855 39.9811 298.628 39.933 293.401 39.933C292.361 39.933 291.296 39.933 289.602 39.933C290.425 42.7455 290.788 45.3417 291.974 47.4811C292.579 48.5388 294.684 49.2359 296.16 49.2599C302.161 49.4523 308.162 49.3321 314.164 49.3321C315.107 49.3321 316.051 49.3321 317.14 49.3321V71.8561C307.654 71.8561 298.289 72.2407 288.949 71.6878C283.94 71.3994 280.31 68.034 278.931 62.9138C277.092 56.0388 275.277 49.1878 273.535 42.2888C273.099 40.5099 272.301 39.8369 270.389 39.8369C268.187 39.8369 268.187 41.2311 267.945 42.6494C266.783 49.2599 265.67 55.8946 264.46 62.5051C263.299 68.8994 259.621 71.9042 253.039 71.9282C247.836 71.9282 242.609 71.9282 237.165 71.9282L237.213 71.9523Z" fill="black"/>
<path d="M237.213 71.9523V50.1013C240.722 49.308 244.448 49.2599 247.134 47.5532C248.78 46.4955 248.804 42.9378 249.724 40.0292H237.286V25.5099C241.399 25.5099 245.537 25.3657 249.651 25.558C251.805 25.6542 252.531 24.8128 252.821 22.8898C253.329 19.6686 253.934 16.4474 254.708 13.2744C254.902 12.5051 255.894 11.3753 256.523 11.3753C262.016 11.2311 267.509 11.2792 273.414 11.2792C272.615 16.0628 271.865 20.558 271.018 25.5099C274.89 25.5099 278.52 25.5099 282.173 25.5099C285.561 25.5099 288.949 25.534 292.337 25.5099C295.555 25.4619 296.281 24.7407 296.305 21.6157C296.329 18.2744 296.305 14.933 296.305 11.4474H318.011C318.059 12.3849 318.156 13.2984 318.156 14.2119C318.156 19.7888 318.156 25.3657 318.156 30.9426C318.156 37.0965 315.349 39.8849 309.082 39.933C303.855 39.9811 298.628 39.933 293.401 39.933C292.361 39.933 291.296 39.933 289.602 39.933C290.425 42.7455 290.788 45.3417 291.974 47.4811C292.579 48.5388 294.684 49.2359 296.16 49.2599C302.161 49.4523 308.162 49.3321 314.164 49.3321C315.107 49.3321 316.051 49.3321 317.14 49.3321V71.8561C307.654 71.8561 298.289 72.2407 288.949 71.6878C283.94 71.3994 280.31 68.034 278.931 62.9138C277.092 56.0388 275.277 49.1878 273.535 42.2888C273.099 40.5099 272.301 39.8369 270.389 39.8369C268.187 39.8369 268.187 41.2311 267.945 42.6494C266.783 49.2599 265.67 55.8946 264.46 62.5051C263.299 68.8994 259.621 71.9042 253.039 71.9282C247.836 71.9282 242.609 71.9282 237.165 71.9282L237.213 71.9523Z" stroke="#680259" stroke-width="6" mask="url(#path-4-outside-4_113_253)"/>
<mask id="path-5-outside-5_113_253" maskUnits="userSpaceOnUse" x="372.938" y="4" width="84" height="71" fill="black">
<rect fill="white" x="372.938" y="4" width="84" height="71"/>
<path d="M375.938 49.3317C378.213 49.3317 380.246 49.4519 382.254 49.3077C384.626 49.1394 386.562 48.274 387.045 45.5817C388.231 39.0673 389.489 32.5769 390.772 25.774H380.318V11.2548H393.482C393.845 9.71635 394.16 8.44231 394.523 7H412.647C412.575 8.37019 412.478 9.66827 412.381 11.2788C413.542 11.2788 414.583 11.2788 415.624 11.2788C424.916 11.2788 434.208 11.2788 443.476 11.2788C449.791 11.2788 453.566 15.0529 453.566 21.3269C453.566 38.0337 453.566 54.7644 453.566 71.7115H431.594C431.594 70.6298 431.594 69.5962 431.594 68.5625C431.594 55.774 431.594 43.0096 431.594 30.2212C431.594 26.3269 430.941 25.7019 427.045 25.7019C421.334 25.7019 415.648 25.7019 409.647 25.7019C408.606 31.6394 407.566 37.4567 406.549 43.2981C405.412 49.8125 404.323 56.351 403.113 62.8654C401.952 69.0192 398.298 71.9519 392.03 71.9519C386.731 71.9519 381.431 71.9519 375.938 71.9519V49.3317Z"/>
</mask>
<path d="M375.938 49.3317C378.213 49.3317 380.246 49.4519 382.254 49.3077C384.626 49.1394 386.562 48.274 387.045 45.5817C388.231 39.0673 389.489 32.5769 390.772 25.774H380.318V11.2548H393.482C393.845 9.71635 394.16 8.44231 394.523 7H412.647C412.575 8.37019 412.478 9.66827 412.381 11.2788C413.542 11.2788 414.583 11.2788 415.624 11.2788C424.916 11.2788 434.208 11.2788 443.476 11.2788C449.791 11.2788 453.566 15.0529 453.566 21.3269C453.566 38.0337 453.566 54.7644 453.566 71.7115H431.594C431.594 70.6298 431.594 69.5962 431.594 68.5625C431.594 55.774 431.594 43.0096 431.594 30.2212C431.594 26.3269 430.941 25.7019 427.045 25.7019C421.334 25.7019 415.648 25.7019 409.647 25.7019C408.606 31.6394 407.566 37.4567 406.549 43.2981C405.412 49.8125 404.323 56.351 403.113 62.8654C401.952 69.0192 398.298 71.9519 392.03 71.9519C386.731 71.9519 381.431 71.9519 375.938 71.9519V49.3317Z" fill="black"/>
<path d="M375.938 49.3317C378.213 49.3317 380.246 49.4519 382.254 49.3077C384.626 49.1394 386.562 48.274 387.045 45.5817C388.231 39.0673 389.489 32.5769 390.772 25.774H380.318V11.2548H393.482C393.845 9.71635 394.16 8.44231 394.523 7H412.647C412.575 8.37019 412.478 9.66827 412.381 11.2788C413.542 11.2788 414.583 11.2788 415.624 11.2788C424.916 11.2788 434.208 11.2788 443.476 11.2788C449.791 11.2788 453.566 15.0529 453.566 21.3269C453.566 38.0337 453.566 54.7644 453.566 71.7115H431.594C431.594 70.6298 431.594 69.5962 431.594 68.5625C431.594 55.774 431.594 43.0096 431.594 30.2212C431.594 26.3269 430.941 25.7019 427.045 25.7019C421.334 25.7019 415.648 25.7019 409.647 25.7019C408.606 31.6394 407.566 37.4567 406.549 43.2981C405.412 49.8125 404.323 56.351 403.113 62.8654C401.952 69.0192 398.298 71.9519 392.03 71.9519C386.731 71.9519 381.431 71.9519 375.938 71.9519V49.3317Z" stroke="#680259" stroke-width="6" mask="url(#path-5-outside-5_113_253)"/>
<mask id="path-6-outside-6_113_253" maskUnits="userSpaceOnUse" x="317.574" y="8.4707" width="59" height="67" fill="black">
<rect fill="white" x="317.574" y="8.4707" width="59" height="67"/>
<path d="M337.683 25.6294H320.599V11.4707H373.52V25.5813H356.509V49.2832H373.496V71.7592H320.574V49.4034H337.683V25.6294Z"/>
</mask>
<path d="M337.683 25.6294H320.599V11.4707H373.52V25.5813H356.509V49.2832H373.496V71.7592H320.574V49.4034H337.683V25.6294Z" fill="black"/>
<path d="M337.683 25.6294H320.599V11.4707H373.52V25.5813H356.509V49.2832H373.496V71.7592H320.574V49.4034H337.683V25.6294Z" stroke="#680259" stroke-width="6" mask="url(#path-6-outside-6_113_253)"/>
<mask id="path-7-outside-7_113_253" maskUnits="userSpaceOnUse" x="81.6705" y="8.4707" width="77" height="67" fill="black">
<rect fill="white" x="81.6705" y="8.4707" width="77" height="67"/>
<path d="M108.917 28.3457H84.6705V11.4707H154.894V28.3457H130.889V71.7111H108.917V28.3457Z"/>
</mask>
<path d="M108.917 28.3457H84.6705V11.4707H154.894V28.3457H130.889V71.7111H108.917V28.3457Z" fill="black"/>
<path d="M108.917 28.3457H84.6705V11.4707H154.894V28.3457H130.889V71.7111H108.917V28.3457Z" stroke="#680259" stroke-width="6" mask="url(#path-7-outside-7_113_253)"/>
</svg>
